 	# This is to make sure whitespace and comments are processed properly. Now for some empty line tests.
 

mtllib test.mtl
o test.obj
v -2.880005 5.039993 51.468170
v -2.880005 5.039993 -364.531830
v 0.000000 5.760010 -364.531830
v 0.000000 5.760010 51.468170
v 2.880005 5.039993 -364.531830
v 2.880005 5.039993 51.468170
v -5.040039 2.880005 51.468170
v -5.040039 2.880005 -364.531830
v -5.760010 0.000000 51.468170
v -5.760010 0.000000 -364.531830
v -2.880005 -5.039993 51.468170
v -2.880005 -5.039993 -364.531830
v -5.040039 -2.880005 -364.531830
v -5.040039 -2.880005 51.468170
v 5.040039 2.880005 -364.531830
v 5.040039 2.880005 51.468170
v 5.760010 0.000000 -364.531830
v 5.760010 0.000000 51.468170
v 5.040039 -2.880005 -364.531830
v 5.040039 -2.880005 51.468170
v 2.880005 -5.039993 -364.531830
v 2.880005 -5.039993 51.468170
v 0.000000 -5.760010 -364.531830
v 0.000000 -5.760010 51.468170
vn -0.492696 0.870201 0.000000
vn -0.492696 0.870201 0.000000
vn 0.000000 1.000000 0.000000
vn 0.000000 1.000000 0.000000
vn 0.492696 0.870201 0.000000
vn 0.492696 0.870201 0.000000
vn -0.870200 0.492699 0.000000
vn -0.870200 0.492699 0.000000
vn -1.000000 0.000000 0.000000
vn -1.000000 0.000000 0.000000
vn -0.492696 -0.870201 0.000000
vn -0.492696 -0.870201 0.000000
vn -0.870200 -0.492699 0.000000
vn -0.870200 -0.492699 0.000000
vn 0.870200 0.492699 0.000000
vn 0.870200 0.492699 0.000000
vn 1.000000 0.000000 0.000000
vn 1.000000 0.000000 0.000000
vn 0.870200 -0.492699 0.000000
vn 0.870200 -0.492699 0.000000
vn 0.492696 -0.870201 0.000000
vn 0.492696 -0.870201 0.000000
vn 0.000000 -1.000000 0.000000
vn 0.000000 -1.000000 0.000000
vt 0.101943 -1.914041
vt 0.101943 2.914041
vt 0.022777 2.914041
vt 0.022777 -1.914041
vt 0.981951 -1.914041
vt 0.981951 2.914041
vt 0.902785 2.914041
vt 0.902785 -1.914041
vt 0.183405 -1.914041
vt 0.183405 2.914041
vt 0.262570 -1.914041
vt 0.262570 2.914041
vt 0.423198 -1.914041
vt 0.423198 2.914041
vt 0.341736 2.914041
vt 0.341736 -1.914041
vt 0.821323 2.914041
vt 0.821323 -1.914041
vt 0.742157 2.914041
vt 0.742157 -1.914041
vt 0.662992 2.914041
vt 0.662992 -1.914041
vt 0.581530 2.914041
vt 0.581530 -1.914041
vt 0.502364 2.914041
vt 0.502364 -1.914041
g Tube Straight
usemtl Material2
f 4/1/4 3/2/3 2/3/2 1/4/1 
f 6/5/6 5/6/5 3/7/3 4/8/4 
f 1/9/1 2/10/2 8/2/8 7/1/7 
f 7/11/7 8/12/8 10/10/10 9/9/9 
f 14/13/14 13/14/13 12/15/12 11/16/11 
f 9/16/9 10/15/10 13/12/13 14/11/14 
f 5/17/5 6/18/6 16/8/16 15/7/15 
f 15/19/15 16/20/16 18/18/18 17/17/17 
f 17/21/17 18/22/18 20/20/20 19/19/19 
f 19/23/19 20/24/20 22/22/22 21/21/21 
f 21/25/21 22/26/22 24/24/24 23/23/23 
f 23/14/23 24/13/24 11/26/11 12/25/12 
